<?xml version="1.0" standalone="no"?><!DOCTYPE svg PUBLIC "-//W3C//DTD SVG 1.1//EN" "http://www.w3.org/Graphics/SVG/1.1/DTD/svg11.dtd"><svg class="icon" width="200px" height="200.00px" viewBox="0 0 1024 1024" version="1.1" xmlns="http://www.w3.org/2000/svg"><path d="M429.792673 354.369447h164.414654v186.762276H429.792673z" fill="#FFE2D1" /><path d="M595.005456 557.09431H429.792673c-8.779423 0-15.962588-7.183164-15.962587-15.962587V354.369447c0-8.779423 7.183164-15.962588 15.962587-15.962588h164.414654c8.779423 0 15.962588 7.183164 15.962587 15.962588v186.762276c0.798129 8.779423-6.385035 15.962588-15.164458 15.962587z m-149.250195-31.925175h132.489478V370.332034H445.755261v154.837101z" fill="#131313" /><path d="M507.211224 215.494934L369.13484 140.470772c-1.596259 7.183164-1.596259 15.164458-1.596259 22.347622v147.653936c0 80.611068 65.44661 146.855807 146.855807 146.855807 80.611068 0 146.855807-65.44661 146.855807-146.855807v-61.455962L507.211224 156.433359V215.494934z" fill="#FFE2D1" /><path d="M513.596259 472.492595c-89.390491 0-162.818394-72.629774-162.818395-162.818394V162.818394c0-8.779423 0.798129-16.760717 2.394389-24.742011 0.798129-4.788776 3.990647-9.577553 8.779423-11.97194 4.788776-2.394388 10.375682-2.394388 14.366329 0l114.132502 62.254092v-31.925176c0-5.586906 3.192518-11.173811 7.981293-13.568199 4.788776-3.192518 11.173811-2.394388 15.962588 0l154.038971 92.583008c4.788776 3.192518 7.981294 7.981294 7.981294 13.5682v61.455962c0 89.390491-72.629774 162.020265-162.818394 162.020265zM383.501169 166.010912v144.461418c0 71.831645 58.263445 130.893219 130.893219 130.893219S645.287607 383.102104 645.287607 310.47233v-52.676539l-122.113796-73.427903V215.494934c0 5.586906-3.192518 11.173811-7.981293 13.568199-4.788776 3.192518-11.173811 3.192518-15.962588 0l-115.728761-63.052221z" fill="#131313" /><path d="M513.596259 15.962588c-71.831645 0-133.287607 52.676539-144.461419 124.508184L507.211224 215.494934v-59.061575l154.038971 91.78488V162.818394C660.452065 81.409197 595.005456 15.962588 513.596259 15.962588z" fill="#B08A77" /><path d="M660.452065 264.978956c-3.192518 0-5.586906-0.798129-7.981293-2.394389l-129.296961-77.41855V215.494934c0 5.586906-3.192518 11.173811-7.981293 13.568199-4.788776 3.192518-11.173811 3.192518-15.962588 0L361.153546 154.038971c-5.586906-3.192518-8.779423-9.577553-7.981293-16.760717C365.942323 58.263445 432.985191 0 513.596259 0c89.390491 0 162.818394 72.629774 162.818394 162.818394v86.197974c0 5.586906-3.192518 11.173811-7.981294 13.568199-2.394388 1.596259-5.586906 2.394388-7.981294 2.394389zM507.211224 140.470772c3.192518 0 5.586906 0.798129 7.981294 2.394388l129.29696 77.41855v-58.263445c0-35.117693-13.5682-67.840998-38.310211-92.583009-24.742011-23.943882-57.465316-37.512081-92.583008-37.512081V15.962588v15.962587C452.938426 31.925175 401.060016 73.427903 386.693687 131.691348l103.75682 56.667187v-31.925176c0-5.586906 3.192518-11.173811 7.981293-13.568199 3.192518-1.596259 5.586906-2.394388 8.779424-2.394388z" fill="#131313" /><path d="M701.156664 540.333593h-58.263445l50.282151 148.452066-54.272798 42.300857v58.263445l-125.306313 125.306313-124.508184-127.700701v-58.263445L334.815277 686.39127 385.097428 540.333593h-63.052221C233.452845 540.333593 161.6212 612.963367 161.6212 701.555729v306.481683h700.7576V701.555729c0-88.592362-71.831645-160.424006-161.222136-161.222136z" fill="#6591C2" /><path d="M862.3788 1024H161.6212c-8.779423 0-15.962588-7.183164-15.962587-15.962588V701.555729c0-97.371785 79.014809-176.386594 176.386594-176.386594H385.097428c4.788776 0 10.375682 2.394388 12.77007 6.385035s3.990647 9.577553 2.394388 14.366329l-46.291504 135.681995 44.695245 35.117693c3.990647 3.192518 6.385035 7.981294 6.385036 12.77007v51.080281l108.545596 110.939984L622.939984 782.166797v-51.080281c0-4.788776 2.394388-9.577553 6.385035-12.77007l44.695246-35.117693-46.291504-137.278254c-1.596259-4.788776-0.798129-10.375682 2.394388-14.366329s7.981294-6.385035 12.77007-6.385035h58.263445c47.089634 0 91.784879 18.356976 124.508184 51.87841 33.521434 33.521434 51.87841 77.41855 51.87841 124.508184v306.481683c0.798129 8.779423-6.385035 15.962588-15.164458 15.962588z m-684.795012-31.925175h668.832424V701.555729c0-38.31021-15.164458-75.024162-42.300857-102.160561-27.136399-27.136399-63.850351-42.300857-102.160562-42.300858v-15.962587 15.962587h-36.713951l43.098987 126.902572c2.394388 6.385035 0 13.5682-5.586906 17.558847l-47.887763 36.713951v50.282152c0 3.990647-1.596259 7.981294-4.788777 11.173811l-125.306313 125.306313c-3.192518 3.192518-7.183164 4.788776-11.173811 4.788777-3.990647 0-7.981294-1.596259-11.173812-4.788777L377.914263 798.129384c-3.192518-3.192518-4.788776-7.183164-4.788776-11.173811v-50.282151l-47.887763-36.713952c-5.586906-3.990647-7.183164-11.173811-5.586906-17.558846l43.098987-125.306314h-40.704598C242.232268 557.09431 177.583788 621.74279 177.583788 701.555729v290.519096z" fill="#131313" /><path d="M389.088075 729.490257v57.465316l124.508184 126.902572 125.306313-125.306313v-57.465316l54.272798-42.300857-50.282151-148.452066H385.097428l-49.484022 146.855807z" fill="#9BC7F6" /><path d="M513.596259 929.820733c-3.990647 0-8.779423-1.596259-11.173812-4.788777L377.914263 798.129384c-3.192518-3.192518-4.788776-7.183164-4.788776-11.173811v-50.282151l-47.887763-36.713952c-5.586906-3.990647-7.183164-11.173811-5.586906-17.558846L369.13484 535.544817c2.394388-6.385035 7.981294-11.173811 15.164459-11.173812h257.795791c7.183164 0 12.77007 3.990647 15.164458 11.173812l50.282151 148.452065c2.394388 6.385035 0 13.5682-5.586906 17.558847l-47.887763 36.713951v50.282152c0 3.990647-1.596259 7.981294-4.788776 11.173811l-125.306313 125.306313c-1.596259 3.192518-5.586906 4.788776-10.375682 4.788777zM405.050663 780.570538l108.545596 110.141855L622.939984 782.166797v-51.080281c0-4.788776 2.394388-9.577553 6.385035-12.77007l44.695246-35.117693-43.098987-126.902572H396.271239l-42.300857 125.306313 44.695245 35.117693c3.990647 3.192518 6.385035 7.981294 6.385036 12.77007v51.080281z" fill="#131313" /><path d="M463.314108 540.333593H385.097428l86.996103 253.007015 35.915822-173.992206z" fill="#FFFFFF" /><path d="M472.093531 809.303196c-6.385035 0-12.77007-3.990647-15.164459-10.375682L369.13484 545.920499c-1.596259-4.788776-0.798129-10.375682 2.394388-14.366329s7.981294-6.385035 12.770071-6.385035h78.216679c5.586906 0 11.173811 3.192518 13.5682 7.981294l44.695245 79.014809c1.596259 3.192518 2.394388 7.183164 1.596259 11.173811l-35.915822 173.992206c-1.596259 7.183164-7.183164 11.971941-14.366329 12.77007 0.798129-0.798129 0.798129-0.798129 0-0.798129z m-64.64848-252.208886L468.901013 734.279034l22.347623-111.738114-37.512081-65.44661h-46.291504z" fill="#131313" /><path d="M552.704599 800.523772l90.18862-260.190179H560.685892l-45.493374 79.014809z" fill="#FFFFFF" /><path d="M552.704599 816.48636h-0.79813c-7.183164-0.798129-12.77007-5.586906-14.366329-12.77007L500.028059 622.54092c-0.798129-3.990647 0-7.981294 1.596259-11.173812l44.695246-79.014809c3.192518-4.788776 7.981294-7.981294 13.568199-7.981294h82.207327c4.788776 0 10.375682 2.394388 12.77007 6.385036 3.192518 3.990647 3.990647 9.577553 2.394388 14.366328L567.869057 806.110678c-2.394388 6.385035-7.981294 10.375682-15.164458 10.375682zM532.751364 622.54092l24.742011 118.921278 63.850351-184.367888h-50.282152L532.751364 622.54092z" fill="#131313" /><path d="M560.685892 540.333593H463.314108l44.695245 79.014809-35.915822 173.992206 27.136399 78.21668 14.366329 42.300857 15.164458-42.300857 23.943882-71.033516-37.512081-181.17537z" fill="#2B3038" /><path d="M513.596259 929.820733c-7.183164 0-12.77007-3.990647-15.164459-10.375682L456.929072 798.927514c-0.798129-2.394388-0.798129-5.586906-0.798129-8.779424l35.117693-167.60717-42.300857-74.226033c-3.192518-4.788776-3.192518-11.173811 0-15.962588 3.192518-4.788776 7.981294-7.981294 13.568199-7.981294H560.685892c5.586906 0 11.173811 3.192518 13.5682 7.981294 3.192518 4.788776 3.192518 11.173811 0 15.962588L532.751364 622.54092l35.915822 175.588464c0.798129 3.192518 0 5.586906-0.798129 8.779423L528.760717 919.445051c-2.394388 6.385035-7.981294 10.375682-15.164458 10.375682zM488.854248 792.542479l24.742011 72.629774 22.347623-65.44661-24.742011-118.921278-22.347623 111.738114z m1.596259-235.448169l21.549493 36.713952 21.549493-36.713952h-43.098986z" fill="#131313" /><path d="M513.596259 1024c-8.779423 0-15.962588-7.183164-15.962588-15.962588v-94.179267c0-8.779423 7.183164-15.962588 15.962588-15.962588s15.962588 7.183164 15.962587 15.962588v94.179267c0 8.779423-7.183164 15.962588-15.962587 15.962588z" fill="#131313" /><path d="M768.199532 1024c-8.779423 0-15.962588-7.183164-15.962587-15.962588V743.856586c0-8.779423 7.183164-15.962588 15.962587-15.962588s15.962588 7.183164 15.962588 15.962588v264.180826c0 8.779423-7.183164 15.962588-15.962588 15.962588z" fill="#131313" /><path d="M255.800468 1024c-8.779423 0-15.962588-7.183164-15.962588-15.962588V743.856586c0-8.779423 7.183164-15.962588 15.962588-15.962588s15.962588 7.183164 15.962587 15.962588v264.180826c0 8.779423-7.183164 15.962588-15.962587 15.962588z" fill="#131313" /></svg>