<?xml version="1.0" standalone="no"?><!DOCTYPE svg PUBLIC "-//W3C//DTD SVG 1.1//EN" "http://www.w3.org/Graphics/SVG/1.1/DTD/svg11.dtd"><svg class="icon" width="200px" height="200.00px" viewBox="0 0 1024 1024" version="1.1" xmlns="http://www.w3.org/2000/svg"><path d="M506.160888 1008.161961c-206.686405 0-362.691087-102.947252-471.181652-94.23633 27.716568-39.595097 41.970803-87.109213 41.970803-136.207133 0-84.733507 51.473626-405.453792 357.939675-542.452827C362.034736 114.896577 316.896325 43.625403 306.6016 28.579266 343.029089-7.848223 422.219283 37.290187 454.687262 114.896577c-4.751412-61.768351 24.54896-93.444429 57.808842-95.820134 32.467979 2.375706 62.560253 34.051783 57.808841 95.820134 31.676077-77.60639 110.866271-122.7448 148.085662-86.317311-11.086627 15.046137-55.433136 86.317311-129.080015 206.686405 307.257951 136.207133 357.939675 457.719319 358.731577 542.452827-0.791902 48.306018 14.254235 95.820134 41.970802 136.207133-109.282467-8.710921-277.165678 94.23633-483.852083 94.23633z" fill="#C3A494" /><path d="M506.160888 1024c-116.409585 0-219.356836-32.467979-301.714638-58.600743-65.727861-21.381352-122.7448-38.803195-168.675112-35.635587-6.335215 0.791902-11.878529-2.375706-15.046137-7.91902-3.167608-5.543314-3.167608-11.878529 0.791902-16.62994 26.132764-37.219391 39.595097-81.565899 38.803195-126.70431 0.791902-107.698663 65.727861-411.789007 351.60446-549.579944C347.780501 123.607498 304.225894 52.336324 293.139267 38.082089c-4.751412-6.335215-3.95951-15.046137 1.583804-20.58945 15.046137-15.046137 35.635587-20.58945 59.392645-15.838039 31.676077 6.335215 64.144057 30.092274 88.693017 62.560253 4.751412-15.838039 11.878529-26.924666 18.213745-34.843685C473.692909 14.325031 491.114751 4.822208 510.120398 4.030306h2.375706c19.005646 1.583804 36.427489 10.294725 49.09792 25.340862 6.335215 7.919019 13.462333 19.005646 18.213744 34.843685C605.940532 31.746873 638.408512 7.989815 670.084589 1.6546c23.757058-4.751412 44.346508 0.791902 59.392645 15.838039 5.543314 5.543314 6.335215 14.254235 1.583804 20.58945-8.710921 11.878529-44.346508 68.103567-118.78529 190.848367 285.084697 136.999035 350.812558 441.089379 351.60446 548.788042-0.791902 45.930312 12.670431 89.484919 38.803194 126.70431 3.167608 4.751412 3.95951 11.878529 0.791902 16.62994-3.167608 5.543314-8.710921 7.919019-15.046136 7.91902-45.930312-3.95951-105.322958 15.046137-174.218426 35.635587-90.276821 28.50847-191.640269 59.392645-308.049854 59.392645zM63.487706 898.087592c44.346508 3.167608 95.028232 19.005646 151.25327 37.219391 84.733507 26.924666 179.76174 57.808841 291.419912 57.808841 111.658173 0 210.645915-30.092274 297.755128-57.016939 58.600743-18.213745 111.658173-34.051783 156.796584-37.219391-19.797548-37.219391-30.092274-77.60639-29.300372-120.369094-0.791902-103.739154-64.935959-401.494282-349.228754-527.40669-3.95951-1.583804-7.127117-5.543314-8.710921-9.502823-1.583804-3.95951-0.791902-8.710921 1.583804-12.670431C632.865198 133.110321 675.627903 63.422951 696.217353 33.330677c-5.543314-1.583804-12.670431-2.375706-19.797548-0.791902-30.092274 5.543314-71.271174 38.011293-92.652527 88.693017-2.375706 7.127117-10.294725 11.086627-18.213745 8.710922-7.919019-1.583804-12.670431-8.710921-11.878529-16.629941 2.375706-26.924666-3.167608-49.889822-15.046136-64.144057-7.127117-8.710921-16.629941-13.462333-26.132764-14.254235-10.294725 0.791902-19.005646 6.335215-26.132764 14.254235-11.878529 14.254235-17.421843 36.427489-15.046137 64.144057 0.791902 7.919019-4.751412 15.046137-11.878529 16.629941-7.919019 1.583804-15.046137-2.375706-18.213745-9.502824-22.173254-49.889822-63.352155-81.565899-92.652526-87.901115-7.919019-1.583804-14.254235-1.583804-19.797549 0.791902 19.797548 30.092274 61.768351 98.19584 120.369095 194.015975 2.375706 3.95951 3.167608 8.710921 1.583804 12.670431s-4.751412 7.919019-8.710922 9.502823C157.724036 376.224216 93.579979 673.187442 92.788077 776.926596c0 42.762705-10.294725 83.941605-29.300371 121.160996z" fill="#131313" /><path d="M382.624186 196.462476c-16.629941 0-30.092274 13.462333-30.092273 30.092274s13.462333 30.092274 30.092273 30.092273h58.600743v-60.976449h-58.600743z" fill="#F6EAC9" /><path d="M441.224929 273.276964h-58.600743c-25.340862 0-45.930312-20.58945-45.930312-45.930312s20.58945-45.930312 45.930312-45.930312h58.600743c8.710921 0 15.838039 7.127117 15.838039 15.838038v60.976449c0 7.919019-7.127117 15.046137-15.838039 15.046137z m-58.600743-60.976449c-7.919019 0-14.254235 6.335215-14.254235 14.254235s6.335215 14.254235 14.254235 14.254235h42.762705v-29.300372h-42.762705z" fill="#131313" /><path d="M647.911335 196.462476h-52.265528v60.976449h52.265528c16.629941 0 30.092274-13.462333 30.092273-30.092273s-12.670431-30.884176-30.092273-30.884176z" fill="#F6EAC9" /><path d="M648.703237 273.276964h-52.265528c-8.710921 0-15.838039-7.127117-15.838039-15.838039v-60.976449c0-8.710921 7.127117-15.838039 15.838039-15.838038h52.265528c25.340862 0 45.930312 20.58945 45.930312 45.930312s-20.58945 46.722214-45.930312 46.722214z m-36.427489-31.676077h36.427489c7.919019 0 14.254235-6.335215 14.254235-14.254235s-6.335215-14.254235-14.254235-14.254235h-36.427489v28.50847z" fill="#131313" /><path d="M441.224929 196.462476h155.21278v60.976449H441.224929z" fill="#F6EAC9" /><path d="M596.437709 273.276964H441.224929c-8.710921 0-15.838039-7.127117-15.838038-15.838039v-60.976449c0-8.710921 7.127117-15.838039 15.838038-15.838038h155.21278c8.710921 0 15.838039 7.127117 15.838039 15.838038v60.976449c0 8.710921-7.127117 15.838039-15.838039 15.838039z m-139.374741-31.676077h123.536702v-29.300372H457.062968v29.300372z" fill="#131313" /><path d="M514.079908 196.462476h82.357801v60.976449H514.079908z" fill="#F6EAC9" /><path d="M596.437709 273.276964H514.079908c-8.710921 0-15.838039-7.127117-15.838039-15.838039v-60.976449c0-8.710921 7.127117-15.838039 15.838039-15.838038h82.357801c8.710921 0 15.838039 7.127117 15.838039 15.838038v60.976449c0 8.710921-7.127117 15.838039-15.838039 15.838039z m-66.519763-31.676077h50.681724v-29.300372h-50.681724v29.300372z" fill="#131313" /><path d="M514.079908 622.505718m-237.570581 0a237.570581 237.570581 0 1 0 475.141162 0 237.570581 237.570581 0 1 0-475.141162 0Z" fill="#9A7867" /><path d="M514.079908 875.914338c-139.374741 0-253.40862-114.033879-253.40862-253.40862s114.033879-253.40862 253.40862-253.40862 253.40862 114.033879 253.408619 253.40862c0 140.166643-114.033879 253.40862-253.408619 253.40862z m0-475.141162c-121.952898 0-221.732542 99.779644-221.732543 221.732542s99.779644 221.732542 221.732543 221.732542 221.732542-99.779644 221.732542-221.732542-99.779644-221.732542-221.732542-221.732542z" fill="#131313" /><path d="M514.079908 622.505718m-176.594132 0a176.594132 176.594132 0 1 0 353.188263 0 176.594132 176.594132 0 1 0-353.188263 0Z" fill="#FFFFFF" /><path d="M514.079908 814.937889c-106.114859 0-192.432171-86.317311-192.432171-192.432171s86.317311-192.432171 192.432171-192.43217 192.432171 86.317311 192.43217 192.43217c-0.791902 106.114859-87.109213 192.432171-192.43217 192.432171z m0-352.396362c-88.693017 0-160.756093 72.063076-160.756094 160.756093S425.386891 784.053713 514.079908 784.053713s160.756093-72.063076 160.756093-160.756093-72.854978-160.756093-160.756093-160.756093z" fill="#131313" /><path d="M517.247515 735.747695c-25.340862 0-52.265528-9.502823-71.271174-34.051783-5.543314-7.127117-3.95951-16.629941 2.375706-22.173254 7.127117-5.543314 16.629941-3.95951 22.173254 2.375705 19.005646 24.54896 48.306018 25.340862 67.311665 19.005647 15.838039-5.543314 25.340862-15.838039 25.340862-26.924666 0-10.294725-24.54896-17.421843-45.930313-23.757058-33.259881-10.294725-75.230684-22.173254-75.230684-61.768351 0-19.005646 11.878529-36.427489 32.46798-46.722214 25.340862-12.670431 68.103567-17.421843 108.490565 11.878529 7.127117 5.543314 8.710921 15.046137 3.167608 22.173254-5.543314 7.127117-15.046137 8.710921-22.173254 3.167608-26.924666-19.797548-57.016939-19.005646-75.230684-9.502824-9.502823 4.751412-15.838039 11.878529-15.838039 19.005647 0 15.046137 22.173254 22.173254 52.265528 31.676077 32.467979 9.502823 68.103567 20.58945 68.103566 53.849332 0 24.54896-18.213745 46.722214-46.722214 57.016939-7.919019 2.375706-18.213745 4.751412-29.300372 4.751412z" fill="#131313" /><path d="M515.663711 563.113073c-8.710921 0-15.838039-7.127117-15.838038-15.838039v-34.843685c0-8.710921 7.127117-15.838039 15.838038-15.838039s15.838039 7.127117 15.838039 15.838039v34.843685c0 9.502823-7.127117 15.838039-15.838039 15.838039z" fill="#131313" /><path d="M515.663711 765.839969c-8.710921 0-15.838039-7.127117-15.838038-15.838039v-26.132764c0-8.710921 7.127117-15.838039 15.838038-15.838039s15.838039 7.127117 15.838039 15.838039v26.132764c0 8.710921-7.127117 15.838039-15.838039 15.838039z" fill="#131313" /></svg>